#!OML:ASF F:\VICON\USERDATA\INSTALL\rory7\rory7.ASF
:FULLY-SPECIFIED
:DEGREES
1498
root -5.60574 19.4359 -5.32743 -7.93178 -70.3694 2.13361
lowerback 12.9124 2.64811 -0.823559
upperback -1.64532 3.45754 0.663038
thorax -9.11673 1.72619 0.461719
lowerneck -14.1333 -0.417185 -6.54869
upperneck -14.4745 0.272335 7.50361
head -2.35127 0.14819 3.70012
rclavicle -2.00027e-015 3.97569e-016
rhumerus 87.08 -22.5212 -40.5974
rradius 32.7109
rwrist 19.5671
rhand -32.1923 9.83398
rfingers 7.12502
rthumb -5.43442 -20.0763
lclavicle -2.00027e-015 3.97569e-016
lhumerus 83.1969 28.9182 33.8243
lradius 25.4902
lwrist -9.71867
lhand -19.7739 20.1753
lfingers 7.12502
lthumb 6.55807 50.0537
rfemur -2.62605 14.9178 20.4366
rtibia 31.7509
rfoot -5.57055 -13.4646
rtoes -2.29703
lfemur -1.41013 3.05849 -22.4295
ltibia 33.8809
lfoot 1.69019 8.17306
ltoes -18.3766
1499
root -5.65254 19.4838 -5.33506 -8.29421 -70.2393 2.53964
lowerback 12.8723 2.71451 -0.95679
upperback -1.76024 3.51856 0.570243
thorax -9.22265 1.76032 0.423221
lowerneck -14.1397 -0.482035 -6.62278
upperneck -14.3059 0.206979 7.61791
head -2.28677 0.12267 3.7509
rclavicle 4.67144e-014 0
rhumerus 87.9757 -22.6285 -40.9532
rradius 31.3694
rwrist 20.2388
rhand -30.9665 11.7325
rfingers 7.12502
rthumb -4.25076 -18.2049
lclavicle 4.67144e-014 0
lhumerus 83.9427 28.9234 34.0438
lradius 25.4532
lwrist -9.67375
lhand -19.1338 20.3597
lfingers 7.12502
lthumb 7.17597 50.218
rfemur -2.81905 14.9534 20.5114
rtibia 31.6531
rfoot -3.4782 -14.3205
rtoes -1.08668
lfemur -1.11924 2.41925 -22.5837
ltibia 33.3085
lfoot 2.63086 8.4761
ltoes -17.8605
1500
root -5.69802 19.5294 -5.34622 -8.76753 -70.0306 3.01715
lowerback 12.8536 2.77719 -1.11761
upperback -1.78841 3.56599 0.449026
thorax -9.24575 1.78809 0.374061
lowerneck -14.3128 -0.536693 -6.48769
upperneck -14.1595 0.122458 7.57088
head -2.19876 0.0798401 3.70195
rclavicle 1.54555e-014 1.07344e-014
rhumerus 88.7456 -22.857 -41.077
rradius 30.2223
rwrist 20.584
rhand -30.8276 11.8112
rfingers 7.12502
rthumb -4.11664 -18.1288
lclavicle 1.54555e-014 1.07344e-014
lhumerus 84.7828 28.9795 34.3085
lradius 25.4875
lwrist -9.76324
lhand -18.6164 20.4892
lfingers 7.12502
lthumb 7.67539 50.3299
rfemur -2.90054 14.9651 20.5499
rtibia 31.6187
rfoot -2.29635 -15.2681
rtoes -0.693057
lfemur -0.830086 1.80524 -22.7442
ltibia 32.7938
lfoot 3.60542 8.70312
ltoes -17.3875
1501
root -5.74596 19.5699 -5.35774 -9.2102 -69.7889 3.49501
lowerback 12.7957 2.80981 -1.20773
upperback -1.86736 3.57775 0.243414
thorax -9.29068 1.79273 0.202921
lowerneck -14.3773 -0.579636 -6.37121
upperneck -13.9536 0.063241 7.67857
head -2.11088 0.0494084 3.71256
rclavicle -4.94787e-014 1.98785e-015
rhumerus 89.6552 -22.9523 -41.7085
rradius 29.0141
rwrist 21.1352
rhand -30.9981 10.9588
rfingers 7.12502
rthumb -4.28132 -18.9779
lclavicle -4.94787e-014 1.98785e-015
lhumerus 85.4638 28.9688 34.1211
lradius 25.4702
lwrist -9.86219
lhand -18.6158 20.4339
lfingers 7.12502
lthumb 7.67598 50.2746
rfemur -2.92226 14.6888 20.5306
rtibia 31.6472
rfoot -1.68014 -15.707
rtoes -0.219376
lfemur -0.582778 1.05433 -22.939
ltibia 32.3226
lfoot 4.74282 8.87861
ltoes -15.5654
1502
root -5.79663 19.6109 -5.36762 -9.6973 -69.4954 4.08196
lowerback 12.686 2.84526 -1.30106
upperback -2.03198 3.59039 0.00244402
thorax -9.39725 1.79712 -0.00466623
lowerneck -14.3632 -0.609291 -6.25827
upperneck -13.5639 0.0274187 7.90718
head -1.97455 0.0332286 3.76548
rclavicle -1.4592e-014 1.3418e-015
rhumerus 90.3288 -22.975 -42.1851
rradius 27.9245
rwrist 21.6448
rhand -31.542 9.44427
rfingers 7.12502
rthumb -4.80646 -20.4812
lclavicle -1.4592e-014 1.3418e-015
lhumerus 86.4391 28.7895 34.0246
lradius 25.0699
lwrist -9.85983
lhand -18.5395 20.4232
lfingers 7.12502
lthumb 7.74966 50.2612
rfemur -2.93905 14.2066 20.4182
rtibia 31.7
rfoot -0.755047 -15.8454
rtoes 0.110876
lfemur -0.410045 0.21144 -23.2234
ltibia 31.8855
lfoot 6.08305 8.99852
ltoes -12.7383
1503
root -5.8453 19.6489 -5.381 -10.4855 -69.1455 4.84332
lowerback 12.7419 2.89332 -1.51564
upperback -2.13005 3.59955 -0.203059
thorax -9.53742 1.80623 -0.11248
lowerneck -14.3514 -0.684543 -6.15067
upperneck -13.2491 -0.0731988 8.08444
head -1.8589 -0.0154723 3.79997
rclavicle 4.02943e-014 -4.94477e-015
rhumerus 90.8256 -22.9477 -42.495
rradius 27.1025
rwrist 22.0517
rhand -32.4767 7.71376
rfingers 7.12502
rthumb -5.70895 -22.1893
lclavicle 4.02943e-014 -4.94477e-015
lhumerus 87.6809 28.6001 34.2857
lradius 24.5077
lwrist -10.2564
lhand -18.6509 20.8831
lfingers 7.12502
lthumb 7.64209 50.725
rfemur -2.76189 14.0496 20.2993
rtibia 31.7095
rfoot 0.0403425 -16.3314
rtoes 0.232271
lfemur -0.145693 -0.650692 -23.5598
ltibia 31.503
lfoot 6.98051 9.45393
ltoes -10.4432
1504
root -5.89682 19.6827 -5.39836 -11.3797 -68.8367 5.68632
lowerback 12.7664 2.95628 -1.82352
upperback -2.16658 3.61524 -0.384456
thorax -9.60014 1.82435 -0.140203
lowerneck -14.1406 -0.825635 -6.2984
upperneck -13.2389 -0.229462 8.31304
head -1.87776 -0.0885889 3.9063
rclavicle -1.67492e-015 -1.74434e-014
rhumerus 91.3745 -22.9258 -42.9269
rradius 26.3856
rwrist 22.2585
rhand -33.0627 6.27814
rfingers 7.12502
rthumb -6.27475 -23.6089
lclavicle -1.67492e-015 -1.74434e-014
lhumerus 89.3994 28.4026 35.2554
lradius 23.9521
lwrist -10.5246
lhand -17.6164 20.8949
lfingers 7.12502
lthumb 8.64051 50.6981
rfemur -2.51663 14.265 20.1728
rtibia 31.6484
rfoot 0.541952 -16.9061
rtoes -0.502761
lfemur 0.115364 -1.33811 -23.8612
ltibia 31.1759
lfoot 7.55347 9.96242
ltoes -8.85658
1505
root -5.95251 19.7166 -5.413 -11.8555 -68.5112 6.16819
lowerback 12.6551 3.01089 -2.01259
upperback -2.24475 3.6449 -0.537342
thorax -9.62422 1.84446 -0.201156
lowerneck -13.9176 -0.950526 -6.41187
upperneck -13.1206 -0.373533 8.48405
head -1.86176 -0.154713 3.98411
rclavicle 5.14386e-014 1.40143e-014
rhumerus 91.9347 -22.963 -43.3768
rradius 25.6303
rwrist 22.1506
rhand -32.4136 6.73833
rfingers 7.12502
rthumb -5.64804 -23.1664
lclavicle 5.14386e-014 1.40143e-014
lhumerus 90.9394 28.1257 35.9199
lradius 23.4089
lwrist -10.9927
lhand -17.1288 21.0185
lfingers 7.12502
lthumb 9.11107 50.8017
rfemur -2.28968 14.6018 20.1584
rtibia 31.511
rfoot 1.04179 -17.3144
rtoes -1.55758
lfemur 0.281127 -1.96052 -24.0191
ltibia 30.8968
lfoot 8.2132 10.175
ltoes -7.56146
1506
root -6.00664 19.7473 -5.42197 -12.1159 -68.1591 6.4116
lowerback 12.5515 3.04929 -2.04415
upperback -2.33625 3.6772 -0.700765
thorax -9.65612 1.85676 -0.362903
lowerneck -14.0102 -1.05899 -6.38227
upperneck -12.6424 -0.510203 8.66204
head -1.66944 -0.212883 4.03007
rclavicle 3.12775e-014 -1.44119e-014
rhumerus 92.5416 -22.907 -44.1149
rradius 24.8813
rwrist 22.4051
rhand -30.3123 11.3107
rfingers 7.12502
rthumb -3.61906 -18.6383
lclavicle 3.12775e-014 -1.44119e-014
lhumerus 90.0005 28.3351 34.5516
lradius 24.0769
lwrist -11.6901
lhand -18.9712 21.0464
lfingers 7.12502
lthumb 7.33295 50.8993
rfemur -2.003 14.9106 20.2029
rtibia 31.3149
rfoot 1.47045 -17.6057
rtoes -2.22831
lfemur 0.456268 -2.63932 -24.1212
ltibia 30.6738
lfoot 8.76864 10.3076
ltoes -6.41289
1507
root -6.05829 19.7726 -5.43063 -12.7934 -67.876 7.07002
lowerback 12.4922 3.10773 -2.2077
upperback -2.40548 3.70923 -0.906195
thorax -9.69532 1.87429 -0.49746
lowerneck -14.1269 -1.17704 -6.46594
upperneck -12.1949 -0.645682 8.86474
head -1.48411 -0.265749 4.10842
rclavicle 2.62023e-014 2.48481e-015
rhumerus 92.9585 -22.7991 -44.7653
rradius 24.3724
rwrist 22.9616
rhand -28.7974 15.0236
rfingers 7.12502
rthumb -2.15601 -14.9453
lclavicle 2.62023e-014 2.48481e-015
lhumerus 91.0536 28.1822 34.5048
lradius 23.5435
lwrist -12.4912
lhand -19.2664 21.2787
lfingers 7.12502
lthumb 7.04798 51.1413
rfemur -1.68326 15.1509 20.0482
rtibia 31.1093
rfoot 1.8196 -17.7948
rtoes -2.88216
lfemur 0.663672 -3.26541 -24.3926
ltibia 30.5003
lfoot 9.24245 10.2812
ltoes -5.88842
1508
root -6.10885 19.7924 -5.44288 -13.7617 -67.5825 8.04796
lowerback 12.4407 3.16744 -2.56258
upperback -2.47757 3.71055 -1.11762
thorax -9.75484 1.88736 -0.526009
lowerneck -13.9638 -1.28151 -6.5671
upperneck -12.0274 -0.770222 8.9762
head -1.44229 -0.32143 4.16212
rclavicle -9.46091e-014 -2.98177e-015
rhumerus 93.0536 -22.8229 -44.7777
rradius 24.0998
rwrist 22.9036
rhand -28.8159 12.7429
rfingers 7.12502
rthumb -2.1739 -17.2258
lclavicle -9.46091e-014 -2.98177e-015
lhumerus 91.4612 28.3111 33.8877
lradius 23.4454
lwrist -12.2074
lhand -19.0117 21.4663
lfingers 7.12502
lthumb 7.29388 51.3206
rfemur -1.39878 15.2884 19.7325
rtibia 30.9551
rfoot 2.23329 -17.8334
rtoes -3.97665
lfemur 0.847688 -3.81922 -24.7858
ltibia 30.3565
lfoot 9.71984 9.94569
ltoes -6.13637
1509
root -6.15647 19.81 -5.45006 -14.6627 -67.0733 8.96739
lowerback 12.3416 3.14814 -2.82264
upperback -2.52183 3.62008 -1.36437
thorax -9.74548 1.84979 -0.622072
lowerneck -13.9148 -1.36996 -6.6048
upperneck -11.9439 -0.838546 9.33991
head -1.24109 -0.365175 3.9223
rclavicle -9.44227e-016 0
rhumerus 93.0823 -23.0486 -44.319
rradius 23.753
rwrist 22.2091
rhand -29.0618 9.00595
rfingers 7.12502
rthumb -2.41143 -20.9602
lclavicle -9.44227e-016 0
lhumerus 91.7106 28.4453 33.5383
lradius 23.6094
lwrist -12.3214
lhand -19.1183 21.2307
lfingers 7.12502
lthumb 7.19097 51.0885
rfemur -1.12082 15.2122 19.3182
rtibia 30.8496
rfoot 2.60437 -17.61
rtoes -4.70708
lfemur 1.02002 -4.60822 -25.2588
ltibia 30.2417
lfoot 10.0007 9.67571
ltoes -5.69198
